<?xml version="1.0" encoding="UTF-8" standalone="no"?>
<!DOCTYPE svg PUBLIC "-//W3C//DTD SVG 1.1//EN"
 "http://www.w3.org/Graphics/SVG/1.1/DTD/svg11.dtd">
<!-- Generated by graphviz version 2.28.0 (20111028.1807)
 -->
<!-- Title: g Pages: 1 -->
<svg width="472pt" height="98pt"
 viewBox="0.00 0.00 472.00 98.00" xmlns="http://www.w3.org/2000/svg" xmlns:xlink="http://www.w3.org/1999/xlink">
<g id="graph1" class="graph" transform="scale(1 1) rotate(0) translate(4 94)">
<title>g</title>
<polygon fill="white" stroke="white" points="-4,5 -4,-94 469,-94 469,5 -4,5"/>
<!-- visited -->
<g id="node1" class="node"><title>visited</title>
<polygon fill="none" stroke="black" points="54,-63 0,-63 0,-27 54,-27 54,-63"/>
<text text-anchor="middle" x="27" y="-39.4" font-family="Times,serif" font-size="14.00">visited</text>
</g>
<!-- registered -->
<g id="node3" class="node"><title>registered</title>
<polygon fill="none" stroke="black" points="161.694,-63 90.3064,-63 90.3064,-27 161.694,-27 161.694,-63"/>
<text text-anchor="middle" x="126" y="-39.4" font-family="Times,serif" font-size="14.00">registered</text>
</g>
<!-- visited&#45;&gt;registered -->
<g id="edge2" class="edge"><title>visited&#45;&gt;registered</title>
<path fill="none" stroke="black" d="M54.2496,-45C62.2344,-45 71.2464,-45 80.0978,-45"/>
<polygon fill="black" stroke="black" points="80.3435,-48.5001 90.3435,-45 80.3435,-41.5001 80.3435,-48.5001"/>
</g>
<!-- trial -->
<g id="node5" class="node"><title>trial</title>
<polygon fill="none" stroke="black" points="252,-63 198,-63 198,-27 252,-27 252,-63"/>
<text text-anchor="middle" x="225" y="-39.4" font-family="Times,serif" font-size="14.00">trial</text>
</g>
<!-- registered&#45;&gt;trial -->
<g id="edge4" class="edge"><title>registered&#45;&gt;trial</title>
<path fill="none" stroke="black" d="M161.745,-45C170.17,-45 179.199,-45 187.694,-45"/>
<polygon fill="black" stroke="black" points="187.715,-48.5001 197.715,-45 187.715,-41.5001 187.715,-48.5001"/>
</g>
<!-- expired -->
<g id="node7" class="node"><title>expired</title>
<polygon fill="none" stroke="black" points="354.979,-90 297.021,-90 297.021,-54 354.979,-54 354.979,-90"/>
<text text-anchor="middle" x="326" y="-66.4" font-family="Times,serif" font-size="14.00">expired</text>
</g>
<!-- trial&#45;&gt;expired -->
<g id="edge6" class="edge"><title>trial&#45;&gt;expired</title>
<path fill="none" stroke="black" d="M252.011,-52.0939C262.645,-54.9942 275.163,-58.408 286.8,-61.5817"/>
<polygon fill="black" stroke="black" points="286.161,-65.0354 296.73,-64.29 288.003,-58.2821 286.161,-65.0354"/>
</g>
<!-- subscribed -->
<g id="node9" class="node"><title>subscribed</title>
<polygon fill="none" stroke="black" points="363.876,-36 288.124,-36 288.124,-0 363.876,-0 363.876,-36"/>
<text text-anchor="middle" x="326" y="-12.4" font-family="Times,serif" font-size="14.00">subscribed</text>
</g>
<!-- trial&#45;&gt;subscribed -->
<g id="edge8" class="edge"><title>trial&#45;&gt;subscribed</title>
<path fill="none" stroke="black" d="M252.011,-37.9061C260.089,-35.703 269.253,-33.2037 278.293,-30.7384"/>
<polygon fill="black" stroke="black" points="279.269,-34.1001 287.995,-28.0922 277.427,-27.3468 279.269,-34.1001"/>
</g>
<!-- renewed -->
<g id="node11" class="node"><title>renewed</title>
<polygon fill="none" stroke="black" points="463.915,-36 400.085,-36 400.085,-0 463.915,-0 463.915,-36"/>
<text text-anchor="middle" x="432" y="-12.4" font-family="Times,serif" font-size="14.00">renewed</text>
</g>
<!-- subscribed&#45;&gt;renewed -->
<g id="edge10" class="edge"><title>subscribed&#45;&gt;renewed</title>
<path fill="none" stroke="black" d="M363.959,-18C372.344,-18 381.299,-18 389.845,-18"/>
<polygon fill="black" stroke="black" points="390.001,-21.5001 400.001,-18 390.001,-14.5001 390.001,-21.5001"/>
</g>
</g>
</svg>
